<?xml version="1.0" standalone="no"?>
<!DOCTYPE svg PUBLIC "-//W3C//DTD SVG 20010904//EN"
 "http://www.w3.org/TR/2001/REC-SVG-20010904/DTD/svg10.dtd">
<svg version="1.0" xmlns="http://www.w3.org/2000/svg"
 width="1279.000000pt" height="1280.000000pt" viewBox="0 0 1279.000000 1280.000000"
 preserveAspectRatio="xMidYMid meet">
<metadata>
Created by potrace 1.15, written by Peter Selinger 2001-2017
</metadata>
<g transform="translate(0.000000,1280.000000) scale(0.100000,-0.100000)"
fill="#000000" stroke="none">
<path d="M6264 12786 c-68 -22 -152 -84 -195 -144 -109 -153 -85 -332 61 -465
60 -54 61 -56 58 -103 l-3 -48 -50 -11 c-62 -14 -125 -44 -139 -67 -17 -28 2
-49 72 -83 l62 -30 0 -83 0 -82 -45 -43 -45 -44 0 -142 c0 -79 -3 -141 -7
-139 -5 2 -46 22 -93 44 -184 89 -407 158 -612 188 -205 31 -491 16 -681 -34
-152 -40 -336 -126 -658 -306 -266 -148 -320 -169 -454 -167 -66 1 -114 8
-180 28 -82 24 -130 47 -368 175 -66 35 -87 42 -135 41 -95 0 -205 -50 -274
-124 l-37 -39 -22 36 c-18 31 -25 35 -47 30 -70 -16 -216 -131 -228 -180 -19
-75 177 -305 239 -281 9 3 27 28 41 55 14 27 32 52 40 55 18 7 73 -32 144
-101 68 -66 103 -141 104 -221 1 -86 -23 -119 -82 -111 -22 3 -90 71 -97 97
-4 18 -12 23 -39 23 -42 0 -136 -41 -168 -73 l-25 -25 52 -103 c50 -99 100
-162 163 -204 l29 -20 -54 -8 c-87 -12 -91 -20 -91 -161 0 -156 -17 -504 -30
-618 -16 -140 -29 -189 -60 -220 -37 -37 -73 -36 -145 2 -70 37 -99 38 -120 6
-22 -33 -30 -125 -16 -169 15 -44 41 -61 115 -77 47 -10 56 -15 51 -28 -3 -10
-71 -208 -150 -442 -246 -730 -320 -944 -770 -2220 -104 -295 -190 -538 -385
-1085 -73 -203 -167 -469 -210 -590 -128 -359 -288 -811 -339 -954 l-47 -134
-105 -23 c-136 -31 -241 -69 -269 -99 -18 -19 -22 -32 -17 -60 23 -139 333
-492 624 -709 479 -357 995 -557 1653 -638 138 -17 686 -17 835 0 745 86 1361
333 1901 763 128 102 347 323 417 422 60 84 100 170 92 197 -8 26 -98 52 -297
87 -116 19 -159 31 -163 42 -4 9 -103 286 -220 616 -117 330 -306 861 -420
1180 -459 1288 -917 2600 -1154 3307 l-116 346 57 12 c102 20 145 79 136 188
-6 64 -23 82 -81 82 -44 0 -70 -12 -109 -48 l-28 -25 -35 19 c-80 43 -86 85
-92 591 -6 467 3 432 -113 441 -38 2 -70 8 -70 11 0 3 24 15 53 25 67 23 138
94 161 162 49 141 18 357 -74 518 -16 30 -30 59 -30 65 0 23 75 9 238 -43 301
-97 431 -126 569 -126 119 0 203 20 477 115 340 117 329 114 461 145 418 101
793 56 1189 -142 181 -90 176 -86 176 -169 0 -83 15 -118 64 -144 20 -11 36
-21 36 -23 0 -2 -16 -22 -35 -45 -19 -22 -35 -46 -35 -52 0 -20 60 -84 110
-116 l50 -32 -50 -29 c-27 -15 -61 -43 -75 -60 l-26 -33 1 -4014 0 -4014 -65
-59 c-35 -32 -92 -93 -125 -135 l-61 -75 20 -31 c11 -17 45 -59 75 -93 l56
-62 -63 -6 c-34 -2 -154 -10 -267 -16 -636 -34 -1238 -159 -1373 -284 -23 -22
-27 -33 -27 -84 l0 -59 -47 -7 c-106 -14 -206 -83 -242 -165 -26 -60 -25 -51
-23 -363 l2 -258 36 -40 c120 -133 566 -237 1259 -294 377 -32 605 -40 1155
-40 557 -1 759 6 1145 40 679 58 1099 162 1209 298 l31 38 0 296 c0 331 2 321
-73 404 -43 47 -114 82 -189 93 l-53 7 0 57 c0 67 -22 96 -101 137 -221 112
-840 209 -1461 231 -98 3 -178 8 -178 9 0 2 36 39 80 82 103 102 103 108 7
205 -41 40 -95 88 -120 107 l-47 33 0 4030 0 4030 -40 39 c-23 21 -62 49 -87
62 l-47 23 29 16 c41 21 98 67 130 105 l26 31 -41 45 -41 45 29 15 c57 29 72
60 72 147 l0 78 72 42 c154 90 325 160 497 204 140 35 227 46 383 46 238 0
429 -39 765 -156 407 -143 455 -155 590 -155 118 0 288 36 537 115 209 66 266
77 266 51 0 -7 -18 -49 -40 -92 -53 -105 -80 -216 -80 -330 0 -102 16 -168 55
-225 31 -44 106 -96 153 -105 52 -10 37 -21 -36 -26 -121 -9 -112 18 -112
-326 0 -430 -17 -629 -58 -675 -13 -14 -67 -47 -78 -47 -2 0 -20 14 -39 32
-29 25 -48 32 -89 36 -47 4 -55 2 -70 -19 -21 -31 -22 -139 -1 -179 18 -34 71
-65 131 -74 l41 -7 -119 -352 c-283 -839 -660 -1918 -1236 -3537 -187 -525
-387 -1087 -444 -1249 l-105 -294 -104 -23 c-148 -33 -244 -70 -273 -105 -24
-28 -24 -31 -10 -70 41 -118 171 -286 365 -473 457 -440 1074 -735 1750 -836
396 -59 872 -52 1279 20 723 126 1394 467 1855 941 134 138 192 212 242 307
37 71 39 84 18 105 -17 18 -183 58 -338 83 -60 9 -111 22 -113 28 -31 90 -373
1056 -614 1731 -276 775 -336 943 -410 1155 -37 107 -141 402 -230 655 -207
588 -347 997 -520 1511 l-138 412 61 12 c71 14 112 48 122 103 8 39 -9 132
-27 154 -17 21 -54 15 -118 -17 -79 -40 -110 -39 -148 4 -48 55 -67 206 -82
666 -11 332 -6 315 -92 326 -26 4 -48 11 -48 16 0 5 15 17 32 26 55 29 91 74
146 186 53 105 54 108 35 128 -26 29 -132 78 -170 78 -27 0 -35 -6 -49 -36
-17 -35 -66 -80 -94 -85 -29 -6 -58 12 -70 42 -19 46 -7 138 26 199 26 48 125
150 182 187 29 20 47 6 74 -55 11 -24 26 -46 34 -49 25 -9 73 18 130 75 67 68
114 145 114 190 0 46 -82 127 -174 172 l-69 34 -19 -24 c-10 -13 -23 -30 -27
-38 -7 -12 -16 -7 -45 25 -45 50 -153 108 -224 121 -85 15 -109 7 -325 -115
-163 -92 -346 -142 -466 -127 -108 13 -143 30 -551 253 -294 161 -473 228
-680 256 -125 17 -367 19 -477 4 -215 -29 -478 -111 -674 -209 -32 -17 -61
-30 -64 -30 -3 0 -5 65 -5 144 0 129 -2 146 -20 169 -11 14 -29 29 -40 32 -18
6 -20 16 -20 101 0 94 0 95 27 105 89 33 120 60 107 93 -7 19 -74 51 -144 69
l-55 14 -3 50 c-3 48 -2 51 38 78 154 107 197 313 97 471 -81 130 -262 203
-393 160z m-3456 -2947 c-15 -10 -109 -12 -132 -3 -12 5 -16 21 -16 66 0 59 0
59 22 44 23 -16 83 -21 112 -10 9 3 17 18 18 33 1 14 4 -7 5 -48 3 -53 0 -77
-9 -82z m7104 119 c3 -20 10 -23 51 -26 32 -2 57 2 73 13 l24 15 0 -59 c0 -44
-4 -60 -16 -65 -22 -8 -117 -7 -130 2 -13 9 -27 142 -14 142 5 0 10 -10 12
-22z m-7242 -647 c0 -180 -5 -217 -30 -224 -13 -3 -20 -24 -31 -88 -26 -164
-10 -252 49 -265 15 -3 32 -7 38 -9 13 -4 24 -1795 24 -3846 l0 -1336 -332 -7
c-745 -15 -1350 -55 -1786 -117 -79 -12 -146 -19 -148 -16 -3 3 22 81 55 173
33 93 107 303 165 467 141 397 282 791 471 1322 86 242 199 559 250 705 485
1377 505 1434 784 2260 88 261 164 481 168 488 5 7 32 21 61 31 59 20 105 59
132 111 23 47 28 71 40 230 16 204 36 280 75 280 13 0 15 -25 15 -159z m166
151 c33 -22 49 -91 69 -305 16 -175 31 -221 86 -274 19 -18 52 -39 74 -46 l39
-14 103 -304 c358 -1057 662 -1927 1193 -3419 474 -1329 618 -1735 616 -1737
-1 -2 -90 8 -197 22 -564 71 -1283 130 -1860 151 l-187 6 -6 642 c-4 352 -8
1525 -9 2606 l-2 1966 29 -4 c48 -8 56 15 56 157 0 100 -4 132 -17 156 -14 24
-18 63 -21 193 -5 197 0 227 34 204z m7077 -33 c5 -19 7 -97 5 -174 -3 -114
-8 -147 -23 -175 -16 -29 -19 -56 -19 -155 -1 -160 4 -175 52 -175 l37 0 -3
-2602 c-1 -1431 -3 -2602 -5 -2603 -1 -2 -207 -8 -457 -14 -731 -18 -1208 -51
-1638 -112 -79 -12 -146 -19 -148 -16 -5 5 132 395 591 1682 465 1303 880
2492 1164 3330 124 368 141 410 162 416 118 31 161 105 178 304 16 183 31 269
53 305 23 38 39 35 51 -11z m171 26 c25 -25 36 -81 51 -264 12 -151 18 -182
41 -229 29 -59 90 -107 151 -118 18 -3 33 -7 33 -9 0 -1 27 -81 59 -176 33
-96 105 -307 160 -469 128 -379 284 -833 406 -1180 53 -151 179 -509 280 -795
101 -286 265 -749 365 -1030 215 -603 304 -853 480 -1350 72 -203 140 -394
151 -423 l19 -54 -37 6 c-434 67 -1430 151 -2042 172 l-204 7 6 1491 c4 820 7
1985 7 2589 0 869 3 1098 13 1101 6 3 24 7 39 10 45 10 63 49 62 136 0 107
-22 211 -45 217 -26 7 -29 22 -36 194 -7 188 -1 215 41 174z"/>
</g>
</svg>
